#N canvas 520 50 700 700 10;
#X declare -stdlib Gem;
#X obj 166 103 r \$0-mixer;
#X obj 221 662 s \$0-mixer;
#X msg 221 580 mode \$1;
#X msg 428 637 tex \$1 \$2;
#X msg 428 598 2 1;
#X floatatom 93 338 5 0 0 0 - - -, f 5;
#X obj 17 336 pix_texture;
#X obj 28 281 loadbang;
#X msg 221 637 darken;
#X msg 221 620 lighten;
#X msg 221 603 glow;
#X obj 17 82 gemhead 50;
#X msg 28 298 rectangle 1;
#X text 106 275 this will have "texunit 0" \, which is the default
for all new textures, f 19;
#X floatatom 62 387 5 0 0 0 - - -, f 5;
#X msg 428 615 1 2;
#X msg 428 581 2 3;
#X msg 428 564 1 3;
#X obj 114 366 list prepend set;
#X obj 114 383 list trim;
#X msg 114 406 6 256 256 34037 0;
#X obj 108 406 cnv 5 5 17 empty empty empty 20 12 0 14 -137280 -66577
0;
#X obj 19 569 cnv 15 120 110 empty empty create_window 15 10 1 12 -204800
-66577 0;
#N canvas 1132 343 454 304 gemwin 0;
#X obj 76 248 gemwin;
#X obj 38 150 outlet;
#X obj 67 10 inlet;
#X obj 67 41 route create;
#X msg 43 93 set destroy;
#X msg 180 81 set create;
#X msg 234 231 destroy;
#N canvas 87 154 247 161 Gem.init 0;
#X obj 118 46 loadbang;
#X msg 118 81 reset;
#X obj 118 113 outlet;
#X connect 0 0 1 0;
#X connect 1 0 2 0;
#X restore 285 106 pd Gem.init;
#X obj 205 11 loadbang;
#X msg 76 210 frame 25 \, dimen 400 300 \, create \, 1;
#X connect 2 0 3 0;
#X connect 3 0 4 0;
#X connect 3 0 9 0;
#X connect 3 1 5 0;
#X connect 3 1 6 0;
#X connect 4 0 1 0;
#X connect 5 0 1 0;
#X connect 6 0 0 0;
#X connect 7 0 0 0;
#X connect 8 0 5 0;
#X connect 9 0 0 0;
#X restore 48 648 pd gemwin;
#X msg 48 624 destroy;
#X obj 554 661 cnv 14 128 15 empty empty empty 2 2 0 9 -253181 -66577
0;
#X obj 553 660 declare -stdlib Gem, f 21;
#X obj 505 80 cnv 15 180 200 empty empty texunit_2: 55 12 0 14 -232576
-66577 0;
#X obj 257 80 cnv 15 230 230 empty empty texunit_1: 60 12 0 14 -172011
-66577 0;
#X obj 505 296 cnv 8 180 200 empty empty texunit_3: 55 12 0 14 -261682
-66577 0;
#X obj 269 283 pix_texture;
#X obj 342 122 openpanel;
#X obj 342 103 bng 15 250 50 0 empty empty empty 17 7 0 10 -262144
-1 -1;
#X obj 269 123 gemhead 11;
#X obj 269 102 tgl 15 0 empty empty empty 17 7 0 10 -262144 -1 -1 0
1;
#X floatatom 345 286 5 0 0 0 - - -, f 5;
#X obj 281 227 hradio 10 1 0 4 empty empty empty 0 -8 0 10 -262144
-1 -1 1;
#X obj 281 241 sel 0;
#X obj 526 255 pix_texture;
#X obj 599 105 openpanel;
#X obj 580 104 bng 15 250 50 0 empty empty empty 17 7 0 10 -262144
-1 -1;
#X obj 526 105 tgl 15 0 empty empty empty 17 7 0 10 -262144 -1 -1 0
1;
#X floatatom 602 258 5 0 0 0 - - -, f 5;
#X obj 563 211 hradio 10 1 0 4 empty empty empty 0 -8 0 10 -262144
-1 -1 2;
#X obj 563 225 sel 0;
#X obj 527 471 pix_texture;
#X obj 600 321 openpanel;
#X obj 580 321 bng 15 250 50 0 empty empty empty 17 7 0 10 -262144
-1 -1;
#X obj 527 321 tgl 15 0 empty empty empty 17 7 0 10 -262144 -1 -1 0
1;
#X floatatom 603 474 5 0 0 0 - - -, f 5;
#X obj 562 427 hradio 10 1 0 4 empty empty empty 0 -8 0 10 -262144
-1 -1 3;
#X obj 562 441 sel 0;
#X msg 308 261 texunit \$1 \, rectangle 1;
#X msg 602 225 texunit \$1 \, rectangle 1, f 11;
#X msg 601 441 texunit \$1 \, rectangle 1, f 11;
#X obj 19 585 cnv 8 120 15 empty empty and_render 25 8 1 12 -204800
-66577 0;
#X obj 19 599 cnv 8 120 2 empty empty empty 25 8 1 12 -204800 -66577
0;
#X text 17 479 The number of available texunits is limited \, depending
on the graphics card., f 78;
#X text 18 492 According to the PD-List \, a fairly new graphics card
has at least 8 \, most likely more., f 68;
#X text 14 530 *;
#X text 219 517 blend amount (0 - 1);
#X obj 428 660 s \$0-mixer;
#X text 425 532 switch input files (by texunits), f 18;
#X text 273 573 blend mode by number;
#X text 263 603 ... or use symbols !;
#X obj 257 96 cnv 4 210 4 empty empty empty 60 12 0 14 -172011 -66577
0;
#X obj 505 98 cnv 4 180 4 empty empty empty 55 12 0 14 -232576 -66577
0;
#X obj 506 314 cnv 4 180 4 empty empty empty 55 12 0 14 -261682 -66577
0;
#X text 380 284 texture ID;
#N canvas 0 50 450 300 lb 0;
#X obj 142 84 loadbang;
#X msg 142 109 1;
#X obj 142 134 outlet;
#X connect 0 0 1 0;
#X connect 1 0 2 0;
#X restore 281 205 pd lb 1;
#N canvas 0 50 450 300 lb 0;
#X obj 142 84 loadbang;
#X obj 142 134 outlet;
#X msg 142 109 2;
#X connect 0 0 2 0;
#X connect 2 0 1 0;
#X restore 563 190 pd lb 2;
#N canvas 0 50 450 300 lb 0;
#X obj 142 84 loadbang;
#X obj 142 134 outlet;
#X msg 142 109 3;
#X connect 0 0 2 0;
#X connect 2 0 1 0;
#X restore 562 406 pd lb 3;
#X obj 30 532 cnv 13 75 15 empty empty empty 2 7 0 10 -257985 -66577
0;
#N canvas 950 206 450 414 v001-info 0;
#X text 42 29 "v001" is a collection of open-gl shaders created by
VADE.;
#X text 43 103 Initially made for MAX's JITTER environment \, they
can be easily adapted for GEM. here i just used the "co2" (compositing)
shaders to provide an easy way to use composite mixing with GEM.;
#X text 47 347 Take care to not change this location !;
#X text 45 166 The cool feature of these shaders is \, that you can
fully mix between both sources \, rather than have the compositing
happen at 50% only.;
#X text 47 217 So: "blend amount";
#X text 175 217 0 = source 1;
#X text 175 231 1 = source 2;
#X text 163 247 0.5 = source 1+2 mixed by 50%;
#X text 44 57 http://001.vade.info/;
#X text 44 324 ./ol_glsl/v001_Mixers/;
#X text 47 290 The .vert and .frag files are searched for inside the
"./ol_glsl" folder:;
#X restore 29 531 pd v001-info;
#X text 17 440 The default texunits (the textures to be mixed) for
v001 mixers are 1 and 2, f 79;
#X text 17 453 Those are NOT the texture IDs ! change them only if
really needed., f 75;
#X obj 333 187 cnv 8 120 70 empty empty empty 60 12 0 14 -4034 -66577
0;
#X text 336 186 texunits have to be given exclusively and gemheads
not using it should be turned off !, f 19;
#X obj 454 39 namecanvas \$0-ol_help;
#N canvas 1274 57 626 800 init 0;
#X obj 470 398 cnv 8 120 25 empty empty empty 20 12 0 14 -204786 -66577
0;
#X obj 97 553 cnv 8 300 80 empty empty empty 20 12 0 14 -204786 -66577
0;
#X obj 461 76 cnv 8 120 26 empty empty empty 20 12 0 14 -204786 -66577
0;
#X obj 60 287 cnv 8 120 25 empty empty empty 20 12 0 14 -204786 -66577
0;
#X msg 245 33 vis 0 \, relocate \$3x\$4+0+0 0x0+\$1+\$2 \, vis 1 \,
editmode 0;
#X obj 245 55 s \$0-ol_help;
#X msg 118 64 520 50 700 700;
#X obj 118 219 s \$0-frame-r;
#X floatatom 118 176 5 0 0 0 - - -, f 5;
#X obj 28 450 s \$0-title-r;
#X msg 98 406 label \$1;
#X floatatom 263 143 5 0 0 0 - - -, f 5;
#X obj 263 183 s \$0-bgnd-r;
#X obj 56 119 del 10;
#X obj 56 99 t b b;
#X text 244 80 1.) set pos and size of main window;
#X msg 172 115 \$3;
#X obj 118 132 f;
#X text 151 143 minus frame sizes, f 11;
#X text 185 291 2.) set name of title;
#X obj 56 141 s \$0-lb;
#X obj 118 107 r \$0-lb;
#X obj 29 244 r \$0-lb;
#X obj 29 406 unpack 0 s;
#X text 175 530 3.) set description;
#X obj 263 262 s \$0-frame2-r;
#X obj 182 463 s \$0-text1-r;
#X obj 29 626 cnv 3 68 15 empty empty empty 2 7 0 10 -257985 -66577
0;
#N canvas 341 335 425 542 tosymbol 0;
#X obj 67 94 list length;
#X obj 67 42 list;
#X obj 101 226 list, f 7;
#X obj 67 175 f, f 10;
#X obj 154 175 + 1;
#X obj 67 150 until;
#X obj 101 251 list split;
#X msg 157 94 0;
#X obj 139 276 list split 1;
#X obj 139 361 list fromsymbol;
#X obj 139 302 route symbol float;
#X obj 191 329 makefilename %s;
#X obj 139 435 textfile;
#X msg 202 94 clear;
#X obj 139 387 list prepend add2;
#X obj 67 201 t b b b f;
#X obj 79 276 + 1;
#X obj 67 122 t f f;
#X obj 78 300 <;
#X obj 20 335 spigot;
#X msg 20 394 add2 32;
#X obj 139 411 list trim;
#X obj 67 335 f;
#X obj 67 361 sel 0;
#X obj 139 463 list tosymbol;
#X obj 67 68 t l l b b, f 23;
#X text 184 486 symbol out with correct spaces;
#X text 57 2 string in;
#X msg 136 25 #/zi 3 4 oo ä;
#X msg 229 25 1.23457e+019;
#X floatatom 315 28 5 0 0 0 - - -, f 5;
#X obj 67 22 cnv 13 34 15 empty empty empty 2 2 0 9 -163816 -66577
0;
#X obj 139 487 cnv 14 40 15 empty empty empty 2 2 0 9 -163840 -66577
0;
#X obj 67 21 inlet;
#X obj 139 486 outlet;
#X connect 0 0 17 0;
#X connect 1 0 25 0;
#X connect 2 0 6 0;
#X connect 3 0 4 0;
#X connect 3 0 15 0;
#X connect 4 0 3 1;
#X connect 5 0 3 0;
#X connect 6 1 8 0;
#X connect 7 0 3 1;
#X connect 8 0 10 0;
#X connect 9 0 14 0;
#X connect 10 0 9 0;
#X connect 10 1 11 0;
#X connect 11 0 9 0;
#X connect 12 0 24 0;
#X connect 13 0 12 0;
#X connect 14 0 21 0;
#X connect 15 0 22 0;
#X connect 15 1 19 0;
#X connect 15 2 2 0;
#X connect 15 3 6 1;
#X connect 15 3 16 0;
#X connect 16 0 18 0;
#X connect 17 0 5 0;
#X connect 17 1 18 1;
#X connect 18 0 19 1;
#X connect 18 0 22 1;
#X connect 19 0 20 0;
#X connect 20 0 12 0;
#X connect 21 0 12 0;
#X connect 22 0 23 0;
#X connect 23 0 12 0;
#X connect 24 0 34 0;
#X connect 25 0 0 0;
#X connect 25 1 2 1;
#X connect 25 2 7 0;
#X connect 25 3 13 0;
#X connect 28 0 1 0;
#X connect 29 0 1 0;
#X connect 30 0 1 0;
#X connect 33 0 1 0;
#X restore 28 625 pd tosymbol;
#X obj 199 390 r \$0-lb;
#X obj 199 413 t b b;
#X obj 268 463 s \$0-text2-r;
#X obj 354 463 s \$0-text3-r;
#X msg 28 488 bang;
#X msg 118 195 vis_size \$1 45;
#X msg 263 240 vis_size \$1 43;
#X obj 370 261 s \$0-title-r;
#X text 349 389 init text labels;
#X obj 28 719 pack s 0 0;
#X msg 28 740 label \$1 \, label_pos \$2 \$3;
#X obj 531 524 unpack;
#X msg 531 500 87 -26;
#X obj 493 448 pack;
#X floatatom 493 401 5 0 0 0 - - -, f 5;
#X floatatom 531 401 5 0 0 0 - - -, f 5;
#X obj 531 431 t b f;
#X msg 545 471 set \$1 \$2;
#X obj 493 471 t b b l;
#X text 503 380 x;
#X text 540 380 y;
#X text 466 362 4.) set label position;
#X obj 564 545 f;
#X msg 321 367 color \$1 \$1 \$1;
#X msg 263 161 vis_size \$1 55;
#X msg 260 413 size 1 \, pos 300 55 \, vis_size 1 1 \, color \$1 \$1
2 \, label_font 1 11 \, label, f 26;
#X floatatom 79 174 5 0 0 0 - - -, f 5;
#X obj 118 153 - 13;
#X obj 263 122 + 10;
#X obj 369 219 - 337;
#X obj 263 219 - 254;
#X obj 56 56 t b f;
#X msg 260 390 -1.47533e+006;
#X msg 260 368 set \$1;
#X obj 56 11 loadbang;
#N canvas 36 456 791 300 better_colors 0;
#X obj 89 19 inlet;
#X obj 320 262 outlet;
#X obj 89 40 random 10;
#X obj 89 61 sel 0 1 2 3 4 5 6 7 8 9, f 83;
#X obj 320 239 expr ($f1*(-65536)+$f2*(-256)+$f3*(-1))-1;
#X msg 16 162 140 0 0;
#X msg 69 162 0 156 144;
#X msg 136 162 0 140 0;
#X msg 252 162 231 112 0;
#X msg 191 162 100 0 255;
#X msg 317 162 100 100 100;
#X msg 397 162 255 255 0;
#X msg 541 162 123 33 5;
#X msg 464 162 22 131 5;
#X msg 607 163 147 0 163;
#X connect 0 0 2 0;
#X connect 2 0 3 0;
#X connect 3 0 5 0;
#X connect 3 1 6 0;
#X connect 3 2 7 0;
#X connect 3 3 9 0;
#X connect 3 4 8 0;
#X connect 3 5 10 0;
#X connect 3 6 11 0;
#X connect 3 7 13 0;
#X connect 3 8 12 0;
#X connect 3 9 14 0;
#X connect 4 0 1 0;
#X connect 5 0 4 0;
#X connect 6 0 4 0;
#X connect 7 0 4 0;
#X connect 8 0 4 0;
#X connect 9 0 4 0;
#X connect 10 0 4 0;
#X connect 11 0 4 0;
#X connect 12 0 4 0;
#X connect 13 0 4 0;
#X connect 14 0 4 0;
#X restore 56 34 pd better_colors;
#X obj 56 78 del 50;
#X msg 170 17 bang;
#X text 200 114 width;
#X msg 29 428 label_pos \$1 21;
#X obj 479 124 list prepend set;
#X obj 479 146 list trim;
#X text 246 10 probably dangerous when initialized with loadbang!;
#X msg 29 383 27 ol_glsl_v001mixer;
#X obj 28 775 s \$0-text1-r;
#X obj 195 719 pack s 0 0;
#X obj 195 775 s \$0-text2-r;
#X obj 351 719 pack s 0 0;
#X msg 351 740 label \$1 \, label_pos \$2 \$3;
#X obj 351 775 s \$0-text3-r;
#X obj 28 648 list prepend 0;
#X msg 195 740 label \$1 \, label_pos \$2 \$3 \, label_font 1 11,
f 23;
#X obj 564 567 + 14;
#X obj 564 590 + 14;
#X obj 28 510 t b b b b b b b, f 20;
#X obj 28 672 route 1 2 3, f 66;
#X msg 86 532 2, f 1;
#X msg 125 531 1, f 1;
#X msg 47 532 3, f 1;
#X msg 153 608 empty;
#X obj 531 272 loadbang;
#X msg 531 293 set -26;
#X floatatom 73 292 5 0 0 0 - - -, f 5;
#X symbolatom 108 292 10 0 0 0 - - -, f 10;
#X obj 73 333 pack 0 s;
#X obj 108 310 t b s;
#X obj 73 354 t b l;
#X msg 113 354 set \$1 \$2;
#X msg 73 261 set 66;
#X msg 479 80 520 50 700 700;
#X msg 106 560 a GUI for v001* mixing shaders;
#X msg 135 584 empty;
#X floatatom 400 183 5 0 0 0 - - -, f 5;
#X msg 370 240 vis_size 250 43;
#X connect 4 0 5 0;
#X connect 6 0 16 0;
#X connect 8 0 34 0;
#X connect 8 0 57 0;
#X connect 8 0 58 0;
#X connect 8 0 59 0;
#X connect 10 0 9 0;
#X connect 11 0 53 0;
#X connect 13 0 20 0;
#X connect 14 0 13 0;
#X connect 14 1 6 0;
#X connect 16 0 17 1;
#X connect 17 0 56 0;
#X connect 21 0 17 0;
#X connect 22 0 72 0;
#X connect 22 0 97 0;
#X connect 23 0 68 0;
#X connect 23 1 10 0;
#X connect 28 0 79 0;
#X connect 29 0 30 0;
#X connect 30 0 83 0;
#X connect 30 1 41 0;
#X connect 30 1 61 0;
#X connect 33 0 83 0;
#X connect 34 0 7 0;
#X connect 35 0 25 0;
#X connect 38 0 39 0;
#X connect 39 0 73 0;
#X connect 40 0 38 1;
#X connect 40 0 74 1;
#X connect 40 0 76 1;
#X connect 40 1 51 0;
#X connect 41 0 40 0;
#X connect 42 0 47 0;
#X connect 43 0 42 0;
#X connect 44 0 45 0;
#X connect 45 0 42 0;
#X connect 45 1 42 1;
#X connect 46 0 41 0;
#X connect 47 0 33 0;
#X connect 47 1 41 0;
#X connect 47 2 46 0;
#X connect 51 0 38 2;
#X connect 51 0 81 0;
#X connect 52 0 12 0;
#X connect 53 0 12 0;
#X connect 54 0 26 0;
#X connect 54 0 31 0;
#X connect 54 0 32 0;
#X connect 55 0 34 0;
#X connect 56 0 8 0;
#X connect 57 0 11 0;
#X connect 58 0 102 0;
#X connect 59 0 35 0;
#X connect 60 0 65 0;
#X connect 60 1 62 0;
#X connect 61 0 54 0;
#X connect 61 0 52 0;
#X connect 62 0 61 0;
#X connect 63 0 64 0;
#X connect 64 0 60 0;
#X connect 65 0 14 0;
#X connect 66 0 64 0;
#X connect 68 0 9 0;
#X connect 69 0 70 0;
#X connect 70 0 6 0;
#X connect 72 0 23 0;
#X connect 74 0 80 0;
#X connect 76 0 77 0;
#X connect 77 0 78 0;
#X connect 79 0 84 0;
#X connect 80 0 75 0;
#X connect 81 0 74 2;
#X connect 81 0 82 0;
#X connect 82 0 76 2;
#X connect 83 0 88 0;
#X connect 83 1 87 0;
#X connect 83 2 100 0;
#X connect 83 3 85 0;
#X connect 83 4 99 0;
#X connect 83 5 86 0;
#X connect 84 0 38 0;
#X connect 84 1 74 0;
#X connect 84 2 76 0;
#X connect 85 0 79 1;
#X connect 86 0 79 1;
#X connect 87 0 79 1;
#X connect 88 0 28 0;
#X connect 89 0 90 0;
#X connect 90 0 44 0;
#X connect 91 0 93 0;
#X connect 92 0 94 0;
#X connect 93 0 95 0;
#X connect 94 0 93 0;
#X connect 94 1 93 1;
#X connect 95 0 72 0;
#X connect 95 1 96 0;
#X connect 96 0 72 0;
#X connect 97 0 91 0;
#X connect 98 0 4 0;
#X connect 98 0 69 0;
#X connect 99 0 28 0;
#X connect 100 0 28 0;
#X connect 101 0 102 0;
#X connect 102 0 36 0;
#X restore 9 38 pd init;
#X obj 1 1 cnv 8 697 55 \$0-bgnd \$0-bgnd-r empty 0 20 0 4 -22530 -22530
0;
#X obj 5 6 cnv 8 687 45 \$0-frame \$0-frame-r empty 20 20 0 14 -1 -262144
0;
#X obj 6 7 cnv 15 250 43 \$0-title \$0-title-r ol_glsl_v001mixer 27
21 1 24 -236864 -64 0;
#X obj 258 7 cnv 15 433 43 \$0-frame2 \$0-frame2-r empty 25 18 1 24
-216384 -4160 0;
#X obj 300 55 cnv 1 1 1 \$0-text1 \$0-text1-r a GUI for v001* mixing shaders
87 -26 1 11 -22530 -66577 0;
#X obj 300 55 cnv 1 1 1 \$0-text2 \$0-text2-r empty 87 -12 1 11 -22530
-66577 0;
#X obj 300 55 cnv 1 1 1 \$0-text3 \$0-text3-r empty 87 2 1 11 -22530
-66577 0;
#X obj 236 562 nbx 2 18 0 23 0 0 empty empty empty 0 -8 1 16 -262144
-4160 -4160 0 256;
#X obj 224 539 hsl 128 15 0 1 0 0 empty empty empty -2 -8 0 10 -262144
-1 -1 0 1;
#X obj 269 164 pix_image ../ol_media/img2.jpg;
#X obj 526 155 pix_image ../ol_media/img3.jpg, f 22;
#X obj 527 371 pix_image ../ol_media/cam1.jpg, f 22;
#X obj 17 107 t a a;
#X obj 526 126 gemhead 12;
#X obj 527 342 gemhead 13;
#X floatatom 46 192 5 0 0 0 - - -, f 5;
#X floatatom 75 210 5 0 0 0 - - -, f 5;
#X obj 17 231 scaleXYZ 1 -1 1;
#X text 118 223 <--- if image is flipped \, use this, f 18;
#X obj 257 309 cnv 15 230 50 empty empty empty 60 12 0 14 -4032 -66577
0;
#X msg 332 315 dim \$2 \$3;
#X obj 332 336 s \$0-mixer;
#X obj 257 359 cnv 15 230 70 empty empty empty 20 12 0 14 -225271 -66577
0;
#X text 426 379 Full texture list, f 8;
#X obj 268 367 list prepend set;
#X obj 268 384 list trim;
#X msg 268 406 1 256 256 34037 1;
#X obj 262 406 cnv 5 5 17 empty empty empty 20 12 0 14 -137280 -66577
0;
#X text 400 311 the mixer dim must be set explicitly !:, f 13;
#X text 389 405 <---, f 5;
#X obj 17 407 square 3;
#X obj 44 133 ol_glsl_v001mixer;
#X msg 342 147 open \$1;
#X msg 599 138 open \$1, f 10;
#X msg 600 354 open \$1, f 10;
#X connect 0 0 111 1;
#X connect 2 0 1 0;
#X connect 3 0 61 0;
#X connect 4 0 3 0;
#X connect 6 0 110 0;
#X connect 6 1 5 0;
#X connect 6 1 18 0;
#X connect 7 0 12 0;
#X connect 8 0 1 0;
#X connect 9 0 1 0;
#X connect 10 0 1 0;
#X connect 11 0 92 0;
#X connect 12 0 6 0;
#X connect 14 0 110 1;
#X connect 15 0 3 0;
#X connect 16 0 3 0;
#X connect 17 0 3 0;
#X connect 18 0 19 0;
#X connect 19 0 20 0;
#X connect 23 0 24 0;
#X connect 24 0 23 0;
#X connect 30 1 35 0;
#X connect 30 1 100 0;
#X connect 30 1 104 0;
#X connect 31 0 112 0;
#X connect 32 0 31 0;
#X connect 33 0 89 0;
#X connect 34 0 33 0;
#X connect 36 0 37 0;
#X connect 37 1 52 0;
#X connect 38 1 42 0;
#X connect 39 0 113 0;
#X connect 40 0 39 0;
#X connect 41 0 93 0;
#X connect 43 0 44 0;
#X connect 44 1 53 0;
#X connect 45 1 49 0;
#X connect 46 0 114 0;
#X connect 47 0 46 0;
#X connect 48 0 94 0;
#X connect 50 0 51 0;
#X connect 51 1 54 0;
#X connect 52 0 30 0;
#X connect 53 0 38 0;
#X connect 54 0 45 0;
#X connect 69 0 36 0;
#X connect 70 0 43 0;
#X connect 71 0 50 0;
#X connect 87 0 2 0;
#X connect 88 0 1 0;
#X connect 89 0 30 0;
#X connect 90 0 38 0;
#X connect 91 0 45 0;
#X connect 92 0 97 0;
#X connect 92 1 111 0;
#X connect 93 0 90 0;
#X connect 94 0 91 0;
#X connect 95 0 97 1;
#X connect 96 0 97 2;
#X connect 97 0 6 0;
#X connect 100 0 101 0;
#X connect 104 0 105 0;
#X connect 105 0 106 0;
#X connect 111 0 6 1;
#X connect 112 0 89 0;
#X connect 113 0 90 0;
#X connect 114 0 91 0;
