#N canvas 946 265 893 620 10;
#X declare -stdlib zexy -lib zexy;
#X declare -stdlib Gem -lib Gem;
#X obj 83 483 glsl_program;
#X obj 171 443 pack 0 0;
#X obj 171 420 change;
#X obj 159 367 change;
#X obj 83 367 glsl_vertex;
#X obj 83 420 glsl_fragment;
#X obj 83 128 inlet;
#X obj 495 6 cnv 14 200 15 empty empty empty 2 2 0 9 -253181 -66577
0;
#X msg 171 466 link \$2 \$1;
#X obj 246 26 gemhead 1;
#X msg 246 48 1;
#X obj 246 72 change -1;
#X text 246 4 IMPORTANT !!!!!;
#X text 311 26 otherwise link will fail !;
#X obj 246 94 bang;
#X obj 95 314 t s s;
#X msg 281 94 bang;
#X msg 95 458 print;
#X obj 505 70 inlet;
#X obj 77 128 cnv 5 5 17 empty empty empty 20 12 0 14 -118750 -66577
0;
#X obj 499 70 cnv 5 5 17 empty empty empty 20 12 0 14 -118750 -66577
0;
#X obj 505 292 s \$0-tog-r;
#X obj 499 292 cnv 5 5 17 empty empty empty 20 12 0 14 -194593 -66577
0;
#X obj 505 269 clip 0 1;
#X obj 132 128 cnv 5 5 17 empty empty empty 20 12 0 14 -260626 -66577
0;
#X obj 138 128 r \$0-tog;
#X obj 83 152 spigot 1;
#X msg 95 399 open \$1.frag;
#X msg 122 339 open \$1.vert;
#X text 75 107 gemlist;
#X obj 41 447 r \$0-p;
#X obj 35 447 cnv 5 5 17 empty empty empty 20 12 0 14 -260626 -66577
0;
#X obj 153 509 cnv 13 50 15 empty empty empty 2 7 0 10 -257985 -66577
0;
#N canvas 72 225 741 654 stuff 0;
#X obj 33 10 inlet;
#X obj 27 218 cnv 5 5 17 empty empty empty 20 12 0 14 -194593 -66577
0;
#X obj 33 218 s \$0-p;
#X obj 347 262 cnv 5 5 17 empty empty empty 20 12 0 14 -194593 -66577
0;
#X obj 146 262 cnv 5 5 17 empty empty empty 20 12 0 14 -194593 -66577
0;
#X obj 213 262 cnv 5 5 17 empty empty empty 20 12 0 14 -194593 -66577
0;
#X obj 280 262 cnv 5 5 17 empty empty empty 20 12 0 14 -194593 -66577
0;
#X obj 152 262 s \$0-R-r;
#X obj 219 262 s \$0-G-r;
#X obj 286 262 s \$0-B-r;
#X obj 353 262 s \$0-A-r;
#X obj 206 131 cnv 5 5 17 empty empty empty 20 12 0 14 -260626 -66577
0;
#X obj 212 131 r \$0-color;
#X obj 212 233 unpack 0 0 0 0;
#X msg 212 177 \$1 \$1 \$1 1;
#X obj 212 154 * 0.01;
#X obj 33 31 t b b b b b b, f 75;
#X obj 474 76 cnv 5 5 17 empty empty empty 20 12 0 14 -194593 -66577
0;
#X msg 480 53 1;
#X obj 384 76 cnv 5 5 17 empty empty empty 20 12 0 14 -194593 -66577
0;
#X obj 390 76 s \$0-mode-r;
#X msg 390 53 0;
#X obj 295 75 cnv 5 5 17 empty empty empty 20 12 0 14 -194593 -66577
0;
#X obj 301 75 s \$0-tol-r;
#X msg 301 52 0.5;
#X obj 204 75 cnv 5 5 17 empty empty empty 20 12 0 14 -194593 -66577
0;
#X obj 210 75 s \$0-fade-r;
#X msg 210 52 0.1;
#X obj 104 75 cnv 5 5 17 empty empty empty 20 12 0 14 -194593 -66577
0;
#X obj 110 75 s \$0-invert-r;
#X msg 110 52 0;
#X obj 55 105 cnv 5 5 17 empty empty empty 20 12 0 14 -194593 -66577
0;
#X obj 61 105 s \$0-color-r;
#X msg 61 82 100;
#X obj 480 76 s \$0-binary-r;
#X obj 106 315 cnv 5 5 17 empty empty empty 20 12 0 14 -260626 -66577
0;
#X obj 112 315 r \$0-binary;
#X obj 191 315 cnv 5 5 17 empty empty empty 20 12 0 14 -260626 -66577
0;
#X obj 197 315 r \$0-mode;
#X obj 263 315 cnv 5 5 17 empty empty empty 20 12 0 14 -260626 -66577
0;
#X obj 269 315 r \$0-tol;
#X obj 330 315 cnv 5 5 17 empty empty empty 20 12 0 14 -260626 -66577
0;
#X obj 336 315 r \$0-fade;
#X obj 404 315 cnv 5 5 17 empty empty empty 20 12 0 14 -260626 -66577
0;
#X obj 410 315 r \$0-invert;
#X obj 656 316 cnv 5 5 17 empty empty empty 20 12 0 14 -260626 -66577
0;
#X obj 504 316 cnv 5 5 17 empty empty empty 20 12 0 14 -260626 -66577
0;
#X obj 554 316 cnv 5 5 17 empty empty empty 20 12 0 14 -260626 -66577
0;
#X obj 605 316 cnv 5 5 17 empty empty empty 20 12 0 14 -260626 -66577
0;
#X obj 662 316 r \$0-A;
#X obj 510 316 r \$0-R;
#X obj 560 316 r \$0-G;
#X obj 611 316 r \$0-B;
#X obj 560 372 pack 0 0 0 0, f 22;
#X obj 560 339 t b f;
#X obj 611 339 t b f;
#X obj 662 338 t b f;
#X msg 560 442 color \$1 \$2 \$3 \$4;
#X obj 112 338 sel 0 1;
#X msg 131 361 1;
#X msg 112 383 -1;
#X msg 112 427 binary \$1;
#X msg 197 382 -1;
#X obj 197 337 sel 2;
#X msg 197 426 mode \$1;
#X msg 269 426 tol \$1;
#X msg 336 424 fade \$1;
#X msg 410 423 invert \$1;
#X obj 307 124 cnv 5 5 17 empty empty empty 20 12 0 14 -260626 -66577
0;
#X obj 313 124 r \$0-colorpresets;
#X obj 313 146 sel 0 1 2 3 4 5, f 53;
#X msg 313 169 1 1 1 1;
#X msg 366 169 0 0 0 1;
#X msg 420 169 0 0 1 1;
#X msg 472 169 0 1 0 1;
#X msg 524 169 1 0 0 1;
#X msg 576 169 1 1 0 1;
#X obj 183 205 cnv 5 5 17 empty empty empty 20 12 0 14 -260626 -66577
0;
#X obj 189 205 r \$0-colorlist;
#X obj 414 200 cnv 5 5 17 empty empty empty 20 12 0 14 -194593 -66577
0;
#X obj 420 200 s \$0-colorlist;
#X obj 47 140 cnv 5 5 17 empty empty empty 20 12 0 14 -260626 -66577
0;
#X obj 53 140 r \$0-units;
#X obj 33 172 list store;
#X msg 33 195 tex0 \$1 \, tex1 \$2;
#X obj 136 518 cnv 5 5 17 empty empty empty 20 12 0 14 -260626 -66577
0;
#X obj 142 518 r \$0-tog;
#X obj 269 459 t b a;
#X obj 11 240 print [ol_chormakey];
#X obj 269 535 pack 0 0 0 0 0 0 0 0 0 0, f 50;
#X obj 554 476 cnv 5 5 17 empty empty empty 20 12 0 14 -194593 -66577
0;
#X obj 560 476 s \$0-p;
#X obj 112 406 f;
#X obj 197 404 f;
#X text 282 554 tog binary mode tol fade invert R G B A;
#X obj 476 508 unpack 0 0 0 0;
#X obj 263 575 cnv 5 5 17 empty empty empty 20 12 0 14 -194593 -66577
0;
#X obj 269 575 s \$0-paramslist;
#X obj 440 484 t b l;
#X connect 0 0 16 0;
#X connect 12 0 15 0;
#X connect 13 0 7 0;
#X connect 13 1 8 0;
#X connect 13 2 9 0;
#X connect 13 3 10 0;
#X connect 14 0 13 0;
#X connect 15 0 14 0;
#X connect 16 0 33 0;
#X connect 16 0 83 0;
#X connect 16 1 30 0;
#X connect 16 2 27 0;
#X connect 16 3 24 0;
#X connect 16 4 21 0;
#X connect 16 5 18 0;
#X connect 18 0 34 0;
#X connect 21 0 20 0;
#X connect 24 0 23 0;
#X connect 27 0 26 0;
#X connect 30 0 29 0;
#X connect 33 0 32 0;
#X connect 36 0 58 0;
#X connect 36 0 89 1;
#X connect 38 0 63 0;
#X connect 38 0 89 2;
#X connect 40 0 65 0;
#X connect 40 0 89 3;
#X connect 42 0 66 0;
#X connect 42 0 89 4;
#X connect 44 0 67 0;
#X connect 44 0 89 5;
#X connect 49 0 56 0;
#X connect 50 0 53 0;
#X connect 51 0 54 0;
#X connect 52 0 55 0;
#X connect 53 0 57 0;
#X connect 53 0 98 0;
#X connect 54 0 53 0;
#X connect 54 1 53 1;
#X connect 55 0 53 0;
#X connect 55 1 53 2;
#X connect 56 0 53 0;
#X connect 56 1 53 3;
#X connect 57 0 91 0;
#X connect 58 0 60 0;
#X connect 58 1 59 0;
#X connect 59 0 92 0;
#X connect 60 0 92 0;
#X connect 61 0 87 0;
#X connect 62 0 93 0;
#X connect 63 0 62 0;
#X connect 63 1 93 0;
#X connect 64 0 87 0;
#X connect 65 0 87 0;
#X connect 66 0 87 0;
#X connect 67 0 87 0;
#X connect 69 0 70 0;
#X connect 70 0 71 0;
#X connect 70 1 72 0;
#X connect 70 2 73 0;
#X connect 70 3 74 0;
#X connect 70 4 75 0;
#X connect 70 5 76 0;
#X connect 71 0 80 0;
#X connect 72 0 80 0;
#X connect 73 0 80 0;
#X connect 74 0 80 0;
#X connect 75 0 80 0;
#X connect 76 0 80 0;
#X connect 78 0 13 0;
#X connect 82 0 83 1;
#X connect 83 0 84 0;
#X connect 84 0 2 0;
#X connect 84 0 88 0;
#X connect 86 0 89 0;
#X connect 87 0 89 0;
#X connect 87 1 91 0;
#X connect 89 0 97 0;
#X connect 92 0 61 0;
#X connect 93 0 64 0;
#X connect 95 0 89 6;
#X connect 95 1 89 7;
#X connect 95 2 89 8;
#X connect 95 3 89 9;
#X connect 98 0 89 0;
#X connect 98 1 95 0;
#X restore 152 508 pd stuff;
#X obj 540 220 route list;
#X obj 534 242 cnv 5 5 17 empty empty empty 20 12 0 14 -194593 -66577
0;
#X obj 540 242 s \$0-colorlist;
#X obj 576 174 route float;
#X obj 712 147 cnv 5 5 17 empty empty empty 20 12 0 14 -194593 -66577
0;
#X obj 641 263 cnv 5 5 17 empty empty empty 20 12 0 14 -194593 -66577
0;
#X obj 647 263 s \$0-mode-r;
#X obj 570 195 cnv 5 5 17 empty empty empty 20 12 0 14 -194593 -66577
0;
#X obj 576 195 s \$0-tol-r;
#X obj 605 147 cnv 5 5 17 empty empty empty 20 12 0 14 -194593 -66577
0;
#X obj 611 147 s \$0-fade-r;
#X obj 676 196 cnv 5 5 17 empty empty empty 20 12 0 14 -194593 -66577
0;
#X obj 682 196 s \$0-invert-r;
#X obj 718 147 s \$0-binary-r;
#X obj 611 122 route float;
#X obj 647 241 route float;
#X obj 682 175 route float;
#X obj 718 122 route float;
#X text 503 50 messages;
#X obj 267 165 cnv 5 5 17 empty empty empty 20 12 0 14 -194593 -66577
0;
#X obj 273 165 s \$0-lb;
#X obj 479 578 cnv 5 5 17 empty empty empty 20 12 0 14 -194593 -66577
0;
#X obj 347 517 s \$0-tog-r;
#X obj 341 517 cnv 5 5 17 empty empty empty 20 12 0 14 -194593 -66577
0;
#X msg 347 495 1;
#X obj 341 419 cnv 5 5 17 empty empty empty 20 12 0 14 -260626 -66577
0;
#X obj 347 419 r \$0-lb;
#X obj 410 494 cnv 5 5 17 empty empty empty 20 12 0 14 -194593 -66577
0;
#X obj 416 494 s \$0-units;
#X msg 416 469 3 4;
#X text 407 412 ATM these texunits are hardwired to 3 and 4, f 23
;
#X obj 548 488 cnv 5 5 17 empty empty empty 20 12 0 14 -194593 -66577
0;
#X msg 554 467 rectangle 1;
#X obj 347 443 t b b b b, f 35;
#X obj 246 140 t s b;
#X obj 83 576 square 4;
#X obj 98 230 cnv 5 5 17 empty empty empty 20 12 0 14 -260626 -66577
0;
#X obj 83 279 translateXYZ 0 0 -4;
#X obj 98 230 cnv 5 5 17 empty empty empty 20 12 0 14 -260626 -66577
0;
#X obj 495 23 cnv 14 200 15 empty empty empty 2 2 0 9 -253181 -66577
0;
#X obj 12 533 cnv 5 5 17 empty empty empty 20 12 0 14 -260626 -66577
0;
#X obj 505 95 route on color tol fade mode invert binary tex, f 48
;
#X obj 775 172 cnv 5 5 17 empty empty empty 20 12 0 14 -194593 -66577
0;
#X obj 781 172 s \$0-units;
#X obj 83 255 gemframebuffer;
#X obj 83 550 pix_texture;
#X obj 347 202 inlet;
#X obj 341 202 cnv 5 5 17 empty empty empty 20 12 0 14 -118750 -66577
0;
#X obj 260 354 mux 0 1;
#X obj 260 378 outlet;
#X obj 254 378 cnv 5 5 17 empty empty empty 20 12 0 14 -102336 -66577
0;
#X text 250 395 framebuffer id;
#X msg 485 517 type BYTE \, format RGBA \, dimen 120 80 \, rectangle
1 \, texunit 0, f 19;
#X msg 347 231 \$2 \$3;
#X obj 347 253 unpack, f 8;
#X obj 347 275 change;
#X obj 392 275 change;
#X obj 347 327 pack;
#X obj 392 296 t b f;
#X msg 347 349 dimen \$1 \$2;
#X text 382 325 update gfb dimen;
#X obj 341 371 cnv 5 5 17 empty empty empty 20 12 0 14 -194593 -66577
0;
#X obj 347 371 s \$0-buf;
#X obj 322 350 bng 15 250 50 0 empty empty empty 17 7 0 10 -262144
-1 -1;
#X obj 390 201 cnv 5 5 17 empty empty empty 20 12 0 14 -260626 -66577
0;
#X obj 396 201 r \$0-lb;
#X msg 396 224 set -2;
#X text 339 181 bypass tex id in;
#X obj 104 230 r \$0-buf;
#X obj 485 578 s \$0-buf;
#X obj 554 488 s \$0-tex;
#X obj 18 533 r \$0-tex;
#X obj 494 22 declare -stdlib zexy -lib zexy, f 33;
#X obj 494 5 declare -stdlib Gem -lib Gem, f 33;
#X obj 0 0 cnv 1 174 64 \$0-border \$0-border-r empty 20 12 0 14 -1
-1 0;
#X obj 1 2 cnv 1 171 60 \$0-bgnd \$0-bgnd-r empty 0 0 0 14 -262144
-66577 0;
#X obj 4 13 hsl 55 10 0 1 0 0 \$0-R \$0-R-r R 10 5 1 10 -261234 -1
-1 0 1;
#X obj 4 23 hsl 55 10 0 1 0 0 \$0-G \$0-G-r G 10 5 1 10 -204786 -1
-1 0 1;
#X obj 4 33 hsl 55 10 0 1 0 0 \$0-B \$0-B-r B 10 5 1 10 -203904 -1
-1 0 1;
#X obj 4 43 hsl 55 10 0 1 0 0 \$0-A \$0-A-r A 10 5 1 10 -262144 -1
-1 0 1;
#X obj 1 53 hradio 10 1 0 6 \$0-colorpresets \$0-colorpresets-r empty
0 8 0 10 -232576 -66577 -262144 3;
#X obj 1 1 nbx 3 12 0 100 0 0 \$0-color \$0-color-r color 33 6 1 9
-262131 -1 -1 0 256;
#X obj 61 1 tgl 12 0 \$0-binary \$0-binary-r bin 15 7 1 10 -155623
-1 -1 0 1;
#X obj 94 1 hradio 12 1 0 3 \$0-mode \$0-mode-r mode 38 7 1 10 -162240
-262131 -1 0;
#X obj 64 13 hsl 107 17 0 1 0 0 \$0-tol \$0-tol-r tol 42 9 1 11 -262144
-1 -99865 0 1;
#X obj 64 30 hsl 107 17 0 1 0 0 \$0-fade \$0-fade-r fade 37 9 1 11
-262144 -1 -99865 0 1;
#X obj 64 47 hsl 107 16 0 1 0 0 \$0-invert \$0-invert-r invert 34 9
1 11 -262144 -1 -99865 0 1;
#X obj 161 1 tgl 12 0 \$0-tog \$0-tog-r empty 17 7 0 10 -159808 -262144
-1 0 1;
#X obj 638 489 cnv 5 5 17 empty empty empty 20 12 0 14 -194593 -66577
0;
#X obj 644 489 s \$0-border-r;
#X obj 639 534 cnv 5 5 17 empty empty empty 20 12 0 14 -194593 -66577
0;
#X obj 645 534 s \$0-bgnd-r;
#X msg 644 446 color \$1 \$1 \$1;
#X floatatom 646 421 5 0 0 0 - - -, f 5;
#X msg 646 511 pos 1 2 \, size 1 \, vis_size 171 60;
#X msg 644 467 pos 0 0 \, size 1 \, vis_size 174 64;
#X obj 697 320 cnv 5 5 17 empty empty empty 20 12 0 14 -260626 -66577
0;
#X obj 703 320 r \$0-paramslist;
#X obj 703 344 outlet;
#X obj 697 344 cnv 5 5 17 empty empty empty 20 12 0 14 -102336 -66577
0;
#X text 703 362 parameters list (i.e. for presets), f 19;
#X obj 246 116 symbol ./ol_glsl/chromakey/chromakey;
#X connect 0 0 79 0;
#X connect 0 1 33 0;
#X connect 1 0 8 0;
#X connect 2 0 1 0;
#X connect 3 0 1 1;
#X connect 4 0 5 0;
#X connect 4 1 3 0;
#X connect 5 0 0 0;
#X connect 5 1 2 0;
#X connect 6 0 26 0;
#X connect 8 0 0 0;
#X connect 9 0 10 0;
#X connect 10 0 11 0;
#X connect 11 0 14 0;
#X connect 14 0 135 0;
#X connect 15 0 27 0;
#X connect 15 1 28 0;
#X connect 16 0 135 0;
#X connect 17 0 0 0;
#X connect 18 0 75 0;
#X connect 23 0 21 0;
#X connect 25 0 26 1;
#X connect 25 0 82 2;
#X connect 26 0 78 0;
#X connect 27 0 5 0;
#X connect 28 0 4 0;
#X connect 30 0 0 0;
#X connect 34 0 36 0;
#X connect 37 0 42 0;
#X connect 48 0 44 0;
#X connect 49 0 40 0;
#X connect 50 0 46 0;
#X connect 51 0 47 0;
#X connect 58 0 56 0;
#X connect 60 0 67 0;
#X connect 63 0 62 0;
#X connect 66 0 104 0;
#X connect 67 0 58 0;
#X connect 67 1 63 0;
#X connect 67 2 86 0;
#X connect 67 3 66 0;
#X connect 68 0 15 0;
#X connect 68 1 54 0;
#X connect 71 0 4 0;
#X connect 75 0 23 0;
#X connect 75 1 34 0;
#X connect 75 2 37 0;
#X connect 75 3 48 0;
#X connect 75 4 49 0;
#X connect 75 5 50 0;
#X connect 75 6 51 0;
#X connect 75 7 77 0;
#X connect 78 0 71 0;
#X connect 78 1 79 1;
#X connect 78 1 82 1;
#X connect 79 0 69 0;
#X connect 80 0 82 0;
#X connect 80 0 87 0;
#X connect 82 0 83 0;
#X connect 86 0 103 0;
#X connect 87 0 88 0;
#X connect 88 0 89 0;
#X connect 88 1 90 0;
#X connect 89 0 91 0;
#X connect 90 0 92 0;
#X connect 91 0 93 0;
#X connect 91 0 97 0;
#X connect 92 0 91 0;
#X connect 92 1 91 1;
#X connect 93 0 96 0;
#X connect 99 0 100 0;
#X connect 100 0 89 0;
#X connect 100 0 90 0;
#X connect 102 0 78 0;
#X connect 105 0 79 0;
#X connect 126 0 123 0;
#X connect 127 0 126 0;
#X connect 128 0 125 0;
#X connect 129 0 123 0;
#X connect 131 0 132 0;
#X connect 135 0 68 0;
#X coords 0 -1 1 1 174 64 2 0 0;
