#N canvas 491 330 656 433 10;
#X obj 1 1 cnv 5 248 38 \$1-cnv \$1-cnv-r empty 2 2 0 7 -204786 -66577
0;
#X obj 14 9 nbx 4 14 -1e+037 1e+037 0 0 \$1-height \$1-height-r height
5 20 1 10 -262144 -1 -1 0 256;
#X obj 68 9 nbx 4 14 -1e+037 1e+037 0 0 \$1-width \$1-width-r width
7 20 1 10 -262144 -1 -1 0 256;
#X obj 170 21 hradio 10 1 0 7 \$1-PR \$1-PR-r sobel 20 -8 1 11 -262144
-1 -4160 0;
#X msg 240 14 just a marker;
#X obj 213 112 s \$1-GUI-presets;
#X obj 213 78 r \$1-PR;
#X text 21 178 will be sent to glsl program in [ol_glsl_shader], f 16;
#X text 368 -1 every send/receive must be preceded with \$1 (= \$0
of parent patch), f 23;
#X obj 28 79 r \$1-height;
#X msg 37 113 height \$1;
#X obj 110 79 r \$1-width;
#X msg 110 113 width \$1;
#X obj 52 156 s \$1-params;
#X connect 6 0 5 0;
#X connect 9 0 10 0;
#X connect 10 0 13 0;
#X connect 11 0 12 0;
#X connect 12 0 13 0;
#X coords 0 -1 1 1 250 40 2 0 0;
