#N canvas 491 330 546 433 10;
#X obj 1 1 cnv 5 248 38 \$1-cnv \$1-cnv-r empty 2 2 0 7 -204786 -66577
0;
#X obj 24 4 nbx 4 11 -1e+037 1e+037 0 0 \$1-brt \$1-brt-r brightness
44 6 1 10 -262144 -1 -1 0 256;
#X obj 170 21 hradio 10 1 0 7 \$1-PR \$1-PR-r contrast 18 -8 1 11 -262144
-1 -4160 0;
#X msg 240 14 just a marker;
#X obj 201 103 s \$1-GUI-presets;
#X obj 201 80 r \$1-PR;
#X text 27 349 will be sent to glsl program in [ol_glsl_shader], f 16;
#X text 368 -1 every send/receive must be preceded with \$1 (= \$0
of parent patch), f 23;
#X obj 24 15 nbx 4 11 -1e+037 1e+037 0 0 \$1-con \$1-con-r contrast
44 6 1 10 -262144 -1 -1 0 256;
#X obj 24 26 nbx 4 11 -1e+037 1e+037 0 0 \$1-sat \$1-sat-r saturation
44 6 1 10 -262144 -1 -1 0 256;
#X obj 28 79 r \$1-brt;
#X msg 28 103 brt \$1;
#X obj 41 134 r \$1-con;
#X msg 41 158 con \$1;
#X obj 57 189 r \$1-sat;
#X msg 57 213 sat \$1;
#X obj 28 289 s \$1-params;
#X connect 5 0 4 0;
#X connect 10 0 11 0;
#X connect 11 0 16 0;
#X connect 12 0 13 0;
#X connect 13 0 16 0;
#X connect 14 0 15 0;
#X connect 15 0 16 0;
#X coords 0 -1 1 1 250 40 2 0 0;
