#N canvas 622 94 870 838 10;
#X obj 46 271 glsl_program;
#X obj 119 202 pack 0 0;
#X obj 132 182 t b f;
#X obj 132 144 change;
#X obj 119 79 change;
#X msg 119 222 link \$1 \$2;
#X floatatom 132 164 2 0 0 0 ID - -, f 2;
#X floatatom 119 100 2 0 0 0 ID - -, f 2;
#X obj 33 202 print linking;
#X obj 46 79 glsl_vertex;
#X obj 46 144 glsl_fragment;
#X msg 100 127 print;
#X msg 92 62 print;
#X msg 131 254 print;
#X floatatom 125 271 0 0 0 0 - - -;
#X obj 38 248 r \$0-params;
#X msg 502 132 BC;
#X obj 545 29 cnv 15 200 30 empty empty empty 20 12 0 14 -204786 -66577
0;
#X symbolatom 556 36 30 0 0 0 - #0-sym-r #0-sym, f 30;
#X msg 608 92 blackandwhite;
#X msg 608 602 threshhold;
#X text 673 601 sic !;
#X msg 608 568 stretch;
#X obj 237 511 pix_texture;
#X obj 310 399 openpanel;
#X obj 310 380 bng 15 250 50 0 empty empty empty 17 7 0 10 -262144
-1 -1;
#X obj 237 400 gemhead 11;
#X obj 237 754 pix_texture;
#X obj 308 638 openpanel;
#X obj 308 619 bng 15 250 50 0 empty empty empty 17 7 0 10 -262144
-1 -1;
#X obj 237 620 tgl 15 0 empty empty empty 17 7 0 10 -262144 -1 -1 0
1;
#X obj 265 464 loadbang;
#X msg 308 661 set open \$1 \, bang;
#X obj 266 708 loadbang;
#X obj 237 639 gemhead 22;
#X floatatom 313 512 5 0 0 0 - - -, f 5;
#X floatatom 314 756 5 0 0 0 - - -, f 5;
#X obj 237 436 pix_image img2.jpg;
#X obj 237 678 pix_image img3.jpg;
#X msg 745 91 additive;
#X obj 39 123 r \$0-f;
#X obj 37 57 r \$0-v;
#X msg 502 539 chromakey;
#X obj 46 760 gemwin;
#X msg 65 738 destroy \, 0;
#X obj 46 679 sel 1 0;
#X obj 46 645 tgl 25 0 empty empty empty 17 7 0 10 -262144 -1 -1 1
1;
#X msg 46 701 reset \, dimen 320 320 \, offset 10 600 \, create \,
1, f 25;
#X obj 46 575 square 3.8;
#X msg 502 556 lumakey;
#N canvas 969 151 662 756 load_shaders_in_extra_ol_abs_glsl 0;
#X obj 71 34 inlet;
#X obj 216 31 inlet;
#X obj 371 29 inlet;
#X obj 71 60 symbol;
#X obj 71 82 s \$0-sym-r;
#X obj 216 134 s \$0-sym-r;
#X obj 216 99 makefilename v001/Effects/v001.%s, f 20;
#X obj 216 78 symbol;
#X obj 516 334 text define \$0-vert;
#X obj 516 351 text define \$0-frag;
#X obj 416 257 r \$0-sym;
#X obj 371 73 t b s;
#X obj 413 106 ol_pp open;
#X obj 371 196 ol_pp open;
#X obj 413 72 makefilename v001/Mixers/v001.co2.%s.frag, f 29;
#X obj 482 106 ol_pp read;
#X obj 441 196 ol_pp read;
#X obj 371 162 symbol v001/Mixers/v001.co2.vert;
#X obj 371 217 s \$0-v;
#X obj 413 126 s \$0-f;
#X obj 371 377 r from_ol_glsl_par;
#X obj 371 398 s \$0-params;
#X obj 371 333 s \$0-v;
#X obj 371 350 s \$0-f;
#X obj 73 267 t b;
#X obj 73 316 text size \$0-frag;
#X obj 73 379 for++ 0 0 1;
#X obj 73 409 text get \$0-frag;
#X obj 73 440 list split 1;
#X obj 73 551 list;
#X obj 73 341 t b f b;
#X obj 107 551 print :;
#X msg 159 341 :: ::;
#X obj 73 291 del 50;
#X obj 73 577 list prepend 0;
#X obj 73 493 t b b;
#X obj 117 493 f, f 4;
#X obj 159 493 + 1;
#X obj 121 611 s ol_glsl_par;
#X msg 163 379 1;
#X msg 156 440 clear;
#X obj 73 243 r \$0-f;
#X obj 73 466 sel uniform //defaults;
#X obj 167 551 list;
#X obj 167 577 list prepend 0;
#X obj 35 611 print PARAMS;
#X obj 281 524 s ol_glsl_par;
#X obj 281 479 ol_shut;
#X obj 281 375 del 10;
#X obj 281 439 t b b b;
#X obj 370 554 s \$0-params;
#X msg 281 501 1 vec4 amount \, 0 amount 0.5 amount;
#X msg 370 525 tex0 1 \, tex1 2;
#X obj 211 520 bng 15 250 50 0 empty empty empty 17 7 0 10 -262144
-1 -1;
#X obj 141 284 s \$0-bb;
#X obj 197 492 del 20;
#X msg 371 290 open \$1/\$1.vert;
#X msg 371 307 open \$1/\$1.frag;
#X msg 516 290 read \$1/\$1.vert;
#X msg 516 307 read \$1/\$1.frag;
#X connect 0 0 3 0;
#X connect 1 0 7 0;
#X connect 2 0 11 0;
#X connect 3 0 4 0;
#X connect 6 0 5 0;
#X connect 7 0 6 0;
#X connect 10 0 56 0;
#X connect 10 0 57 0;
#X connect 10 0 58 0;
#X connect 10 0 59 0;
#X connect 11 0 17 0;
#X connect 11 1 14 0;
#X connect 11 1 47 1;
#X connect 12 0 19 0;
#X connect 13 0 18 0;
#X connect 14 0 12 0;
#X connect 14 0 15 0;
#X connect 15 0 8 0;
#X connect 16 0 9 0;
#X connect 17 0 13 0;
#X connect 17 0 16 0;
#X connect 20 0 21 0;
#X connect 24 0 33 0;
#X connect 24 0 54 0;
#X connect 25 0 30 0;
#X connect 26 0 27 0;
#X connect 26 1 32 0;
#X connect 27 0 28 0;
#X connect 28 0 42 0;
#X connect 28 1 29 1;
#X connect 28 1 43 1;
#X connect 29 0 34 0;
#X connect 30 0 26 0;
#X connect 30 1 26 1;
#X connect 30 2 32 0;
#X connect 30 2 39 0;
#X connect 30 2 40 0;
#X connect 30 2 48 0;
#X connect 32 0 31 0;
#X connect 33 0 25 0;
#X connect 34 0 38 0;
#X connect 34 0 45 0;
#X connect 35 0 29 0;
#X connect 35 1 36 0;
#X connect 36 0 37 0;
#X connect 36 0 34 1;
#X connect 37 0 36 1;
#X connect 39 0 36 1;
#X connect 40 0 38 0;
#X connect 41 0 24 0;
#X connect 42 0 35 0;
#X connect 42 1 55 0;
#X connect 43 0 44 0;
#X connect 44 0 38 0;
#X connect 47 0 51 0;
#X connect 47 0 52 0;
#X connect 48 0 49 0;
#X connect 49 0 47 0;
#X connect 51 0 46 0;
#X connect 52 0 50 0;
#X connect 53 0 43 0;
#X connect 55 0 43 0;
#X connect 56 0 22 0;
#X connect 57 0 23 0;
#X connect 58 0 8 0;
#X connect 59 0 9 0;
#X restore 502 679 pd load_shaders_in_extra_ol_abs_glsl;
#X text 611 70 v001 Effects;
#X text 308 22 PARAMS:;
#X obj 500 793 s \$0-params;
#X obj 46 12 tgl 15 0 empty empty empty 17 7 0 10 -262144 -1 -1 0 1
;
#X obj 46 553 r \$0-square;
#X msg 265 486 texunit 1 \, rectangle 1;
#X msg 266 729 texunit 2 \, rectangle 1;
#X msg 74 317 open img1.jpg;
#X obj 46 369 pix_image img1.jpg;
#X msg 74 339 open img2.jpg;
#X obj 46 456 pix_texture;
#X obj 63 395 loadbang;
#X msg 63 417 texunit 0 \, rectangle 1, f 11;
#X obj 46 478 s \$0-square;
#X floatatom 129 473 5 0 0 0 - - -, f 5;
#X msg 500 743 tex0 0 \, tex1 2;
#X text 599 732 send one of these \, when mixers or keyers are loaded:
, f 28;
#X obj 46 32 gemhead 10;
#X msg 145 434 0;
#X obj 145 412 del 50;
#X floatatom 115 575 5 0 0 0 - - -, f 5;
#X obj 237 379 tgl 15 0 empty empty empty 17 7 0 10 -262144 -1 -1 0
1;
#X obj 256 378 r \$0-bb;
#X obj 256 617 r \$0-bb;
#X obj 231 53 ol_glsl_par 1;
#X msg 608 109 cartopol;
#X text 668 109 ???;
#X msg 608 126 channelmixer;
#X msg 608 143 clamp;
#X msg 608 160 colorseparator;
#X text 652 144 -;
#X text 700 160 -;
#X msg 608 177 dent;
#X msg 608 194 duotone;
#X msg 608 211 exposure;
#X msg 608 228 fader;
#X msg 608 245 film-bleachbypass;
#X obj 745 662 symbol;
#X msg 608 262 film-lomo;
#X msg 608 279 film-technicolor1;
#X msg 608 296 film-technicolor2;
#X msg 608 313 film-technicolor3;
#X msg 608 330 film-technicolor3-w;
#X msg 608 347 invert;
#X msg 608 364 levels;
#X msg 608 381 lighttunnel;
#X msg 608 398 lumaglyph;
#X msg 608 415 mirror;
#X msg 608 432 pinch;
#X msg 608 449 pixelate;
#X msg 608 466 poltocar;
#X text 664 466 ???;
#X msg 608 483 posterize;
#X msg 608 500 rotaclamp;
#X msg 608 517 rotashred;
#X msg 608 534 scanlines;
#X msg 608 551 shred;
#X msg 608 585 stripes;
#X msg 608 619 tint;
#X msg 608 636 tintlight;
#X msg 608 653 twirl;
#X text 283 566 CHALLENGE: was ist texorient ?;
#X text 645 177 -;
#X text 665 210 -;
#X text 654 364 invalid ...;
#X text 683 380 - scale;
#X text 671 397 invalid ...;
#X text 654 432 -;
#X text 651 651 -;
#X text 671 515 -;
#X msg 745 176 darken;
#X msg 745 108 alphablend;
#X msg 745 125 average;
#X msg 745 142 brightlight;
#X msg 745 159 burn;
#X msg 745 193 difference;
#X msg 745 210 dodge;
#X msg 745 227 exclude;
#X msg 745 244 freeze;
#X msg 745 261 glow;
#X msg 745 278 hardlight;
#X msg 745 295 heat;
#X msg 745 312 inverse;
#X msg 745 329 lighten;
#X msg 745 346 multiply;
#X msg 745 363 negate;
#X msg 745 380 overlay;
#X msg 745 397 reflect;
#X msg 745 414 screen;
#X msg 745 431 softlight;
#X msg 745 448 stamp;
#X msg 745 465 subtractive;
#X msg 745 597 alphamix;
#X msg 745 614 lumamix;
#X text 753 577 v001 Mixer (3);
#X text 746 70 v001 Mixer (2);
#X obj 231 88 ol_glsl_par 2;
#X obj 231 126 ol_glsl_par 3;
#X obj 231 238 ol_glsl_par 6;
#X obj 231 165 ol_glsl_par 4;
#X obj 231 202 ol_glsl_par 5;
#X obj 231 274 ol_glsl_par 7;
#X obj 231 313 ol_glsl_par 8;
#X msg 502 115 badprint;
#X msg 502 149 bloom;
#X text 558 114 -;
#X text 541 148 -;
#X msg 502 166 blur;
#X msg 502 183 Brick;
#X msg 502 200 julia;
#X msg 502 217 laplace;
#X msg 502 234 led;
#X msg 502 251 lighttunnel;
#X msg 502 268 mandel;
#X msg 502 342 sobel;
#X msg 502 359 sphereMorph;
#X msg 502 376 threshold;
#X msg 502 393 vertexNoise;
#X msg 502 410 vertFetch;
#X text 542 182 -;
#X msg 502 295 rota;
#X msg 500 721 tex0 1 \, tex1 1;
#X obj 19 503 ol_msg;
#X msg 310 419 open \$1;
#X msg 500 764 tex0 1 \, tex1 2;
#X connect 0 0 59 0;
#X connect 0 1 14 0;
#X connect 1 0 5 0;
#X connect 2 0 1 0;
#X connect 2 1 1 1;
#X connect 3 0 6 0;
#X connect 4 0 7 0;
#X connect 5 0 0 0;
#X connect 5 0 8 0;
#X connect 6 0 2 0;
#X connect 7 0 1 0;
#X connect 9 0 10 0;
#X connect 9 1 4 0;
#X connect 10 0 0 0;
#X connect 10 1 3 0;
#X connect 11 0 10 0;
#X connect 12 0 9 0;
#X connect 13 0 0 0;
#X connect 15 0 0 0;
#X connect 15 0 173 0;
#X connect 16 0 50 0;
#X connect 19 0 50 1;
#X connect 20 0 50 1;
#X connect 22 0 50 1;
#X connect 23 1 35 0;
#X connect 24 0 174 0;
#X connect 25 0 24 0;
#X connect 26 0 37 0;
#X connect 27 1 36 0;
#X connect 28 0 32 0;
#X connect 29 0 28 0;
#X connect 30 0 34 0;
#X connect 31 0 56 0;
#X connect 32 0 38 0;
#X connect 33 0 57 0;
#X connect 34 0 38 0;
#X connect 37 0 23 0;
#X connect 38 0 27 0;
#X connect 39 0 88 0;
#X connect 40 0 10 0;
#X connect 41 0 9 0;
#X connect 42 0 50 0;
#X connect 44 0 43 0;
#X connect 45 0 47 0;
#X connect 45 1 44 0;
#X connect 46 0 45 0;
#X connect 47 0 43 0;
#X connect 49 0 50 0;
#X connect 54 0 68 0;
#X connect 55 0 48 0;
#X connect 56 0 23 0;
#X connect 57 0 27 0;
#X connect 58 0 59 0;
#X connect 59 0 61 0;
#X connect 60 0 59 0;
#X connect 61 0 64 0;
#X connect 61 1 65 0;
#X connect 62 0 63 0;
#X connect 62 0 70 0;
#X connect 63 0 61 0;
#X connect 66 0 53 0;
#X connect 68 0 9 0;
#X connect 69 0 30 0;
#X connect 69 0 72 0;
#X connect 70 0 69 0;
#X connect 71 0 48 1;
#X connect 72 0 26 0;
#X connect 73 0 26 0;
#X connect 74 0 34 0;
#X connect 76 0 50 1;
#X connect 78 0 50 1;
#X connect 79 0 50 1;
#X connect 80 0 50 1;
#X connect 83 0 50 1;
#X connect 84 0 50 1;
#X connect 85 0 50 1;
#X connect 86 0 50 1;
#X connect 87 0 50 1;
#X connect 88 0 50 2;
#X connect 89 0 50 1;
#X connect 90 0 50 1;
#X connect 91 0 50 1;
#X connect 92 0 50 1;
#X connect 93 0 50 1;
#X connect 94 0 50 1;
#X connect 95 0 50 1;
#X connect 96 0 50 1;
#X connect 97 0 50 1;
#X connect 98 0 50 1;
#X connect 99 0 50 1;
#X connect 100 0 50 1;
#X connect 101 0 50 1;
#X connect 103 0 50 1;
#X connect 104 0 50 1;
#X connect 105 0 50 1;
#X connect 106 0 50 1;
#X connect 107 0 50 1;
#X connect 108 0 50 1;
#X connect 109 0 50 1;
#X connect 110 0 50 1;
#X connect 111 0 50 1;
#X connect 121 0 88 0;
#X connect 122 0 88 0;
#X connect 123 0 88 0;
#X connect 124 0 88 0;
#X connect 125 0 88 0;
#X connect 126 0 88 0;
#X connect 127 0 88 0;
#X connect 128 0 88 0;
#X connect 129 0 88 0;
#X connect 130 0 88 0;
#X connect 131 0 88 0;
#X connect 132 0 88 0;
#X connect 133 0 88 0;
#X connect 134 0 88 0;
#X connect 135 0 88 0;
#X connect 136 0 88 0;
#X connect 137 0 88 0;
#X connect 138 0 88 0;
#X connect 139 0 88 0;
#X connect 140 0 88 0;
#X connect 141 0 88 0;
#X connect 142 0 88 0;
#X connect 143 0 88 0;
#X connect 144 0 88 0;
#X connect 154 0 50 0;
#X connect 155 0 50 0;
#X connect 158 0 50 0;
#X connect 159 0 50 0;
#X connect 160 0 50 0;
#X connect 161 0 50 0;
#X connect 162 0 50 0;
#X connect 163 0 50 0;
#X connect 164 0 50 0;
#X connect 165 0 50 0;
#X connect 166 0 50 0;
#X connect 167 0 50 0;
#X connect 168 0 50 0;
#X connect 169 0 50 0;
#X connect 171 0 50 0;
#X connect 172 0 53 0;
#X connect 174 0 37 0;
#X connect 175 0 53 0;
