#N canvas 70 275 652 670 10;
#X msg 556 482 vis \$1;
#X obj 556 461 tgl 15 0 empty empty empty 17 7 0 10 -262144 -1 -1 1
1;
#X obj 438 6 cnv 10 200 170 empty empty GOP 140 17 1 20 -204786 -4160
0;
#X obj 452 18 r \$0-GOP;
#X obj 446 18 cnv 5 5 17 empty empty empty 20 12 0 14 -260097 -66577
0;
#X obj 446 87 cnv 5 5 17 empty empty empty 20 12 0 14 -173398 -66577
0;
#X msg 519 25 80 14;
#X obj 8 10 namecanvas \$0-ol_glsl_par;
#X obj 452 87 s \$0-ol_glsl_par;
#X msg 525 310 clear;
#X obj 12 211 r ol_glsl_par;
#X obj 467 269 loadbang;
#X obj 467 346 s \$0-GOP;
#X msg 452 111 donecanvasdialog 1 -1 2 0 -1 1 1 \$1 \$2 0 0 \, dirty
0, f 28;
#X msg 452 42 donecanvasdialog 1 -1 2 0 -1 1 1 \$1 \$2 10 100 \, dirty
0, f 28;
#X obj 467 293 t b b;
#X obj 12 266 t l l;
#X msg 58 267 \$2;
#X msg 58 312 F;
#X obj 12 340 list split 1;
#X obj 12 364 list append;
#X obj 46 389 list split 1;
#X obj 12 416 list;
#X text 88 267 message "float" hack;
#X obj 12 492 route bool F vec2 vec3 vec4;
#X obj 12 235 route list;
#X obj 280 252 route clear;
#X msg 280 276 clear;
#X msg 45 177 clear;
#N canvas 485 488 450 300 bool 0;
#X obj 27 28 inlet;
#X obj 27 49 symbol;
#X msg 27 164 list $ 0 \$1;
#X obj 27 208 s pd-\$0-GUI;
#X obj 27 262 s \$0-out;
#X obj 46 77 s \$0-pname;
#X obj 27 238 r \$0-bool;
#X obj 236 148 s \$0-bool-r;
#X msg 27 185 obj 0 0 tgl 20 0 \$1\$2-bool \$1\$2-bool-r \$3 25 9 1
10 4 -1 -1 0 1, f 66;
#X msg 262 114 label \$1;
#X obj 236 22 r \$0-default;
#X obj 236 114 *;
#X obj 236 43 list split 1;
#X obj 236 65 route float;
#X obj 270 90 route symbol;
#X connect 0 0 1 0;
#X connect 1 0 2 0;
#X connect 1 0 5 0;
#X connect 2 0 8 0;
#X connect 6 0 4 0;
#X connect 8 0 3 0;
#X connect 9 0 7 0;
#X connect 10 0 12 0;
#X connect 11 0 7 0;
#X connect 12 0 13 0;
#X connect 12 1 14 0;
#X connect 13 0 11 0;
#X connect 14 0 9 0;
#X restore 12 637 pd bool;
#N canvas 750 354 656 428 float 0;
#X obj 26 28 inlet;
#X obj 26 76 symbol;
#X obj 53 215 s pd-\$0-GUI;
#X msg 26 99 list $ 0 \$1;
#X obj 40 52 bng 15 250 50 0 empty empty empty 17 7 0 10 -262144 -1
-1;
#X msg 26 284 1;
#X obj 26 306 s \$0-floatmult-r;
#X obj 238 24 r \$0-floatmult;
#X obj 238 45 sel 0 1;
#X msg 238 67 1;
#X msg 267 67 0.01;
#X obj 164 24 r \$0-float;
#X obj 238 89 t b f;
#X obj 210 116 *;
#X obj 210 247 s \$0-out;
#X obj 131 215 s \$0-pname;
#X msg 518 134 label \$1;
#X obj 507 162 s \$0-float-r;
#X obj 492 22 r \$0-default;
#X obj 492 134 *;
#X obj 399 22 r \$0-floatmult;
#X obj 399 44 * 100;
#X obj 26 240 del 5;
#X obj 26 263 t b b;
#X obj 69 280 s \$0-float-r;
#X obj 492 43 list split 1;
#X obj 492 65 route float;
#X obj 526 90 route symbol;
#X obj 26 121 t b l b;
#X msg 79 121 clear;
#X msg 54 147 obj 0 0 nbx 4 20 -1e+037 1e+037 0 0 \$1\$2-float \$1\$2-float-r
\$3 110 11 1 10 6 -1 -1 0 256 \, obj 44 0 tgl 10 0 \$1\$2-floatswitch
\$1\$2-floatswitch-r switch 15 4 0 10 6 -1 -1 0 1 \, obj 44 10 tgl
10 0 \$1\$2-floatmult \$1\$2-floatmult-r /100 15 5 0 10 6 -1 -1 0 1
, f 66;
#X obj 411 230 r \$0-floatswitch;
#X obj 411 253 *;
#X obj 411 274 s \$0-float-r;
#X obj 399 66 sel 0;
#X msg 399 87 1;
#X obj 426 104 f;
#X connect 0 0 1 0;
#X connect 1 0 3 0;
#X connect 1 0 15 0;
#X connect 3 0 28 0;
#X connect 4 0 1 0;
#X connect 5 0 6 0;
#X connect 7 0 8 0;
#X connect 8 0 9 0;
#X connect 8 1 10 0;
#X connect 9 0 12 0;
#X connect 10 0 12 0;
#X connect 11 0 13 0;
#X connect 12 0 13 0;
#X connect 12 1 13 1;
#X connect 13 0 14 0;
#X connect 16 0 17 0;
#X connect 18 0 25 0;
#X connect 19 0 17 0;
#X connect 20 0 21 0;
#X connect 21 0 34 0;
#X connect 22 0 23 0;
#X connect 23 0 5 0;
#X connect 23 1 24 0;
#X connect 25 0 26 0;
#X connect 25 1 27 0;
#X connect 26 0 19 0;
#X connect 27 0 16 0;
#X connect 28 0 22 0;
#X connect 28 1 30 0;
#X connect 28 2 29 0;
#X connect 29 0 2 0;
#X connect 30 0 2 0;
#X connect 31 0 32 0;
#X connect 32 0 33 0;
#X connect 34 0 35 0;
#X connect 34 1 36 0;
#X connect 35 0 36 0;
#X connect 36 0 19 1;
#X connect 36 0 32 1;
#X restore 43 613 pd float;
#N canvas 0 50 450 300 \$0-GUI 0;
#X obj 0 0 nbx 4 20 -1e+037 1e+037 0 0 \$0-float \$0-float-r B 110
11 1 10 -225271 -1 -1 0 256;
#X obj 44 0 tgl 10 0 \$0-floatswitch \$0-floatswitch-r switch 15 4
0 10 -225271 -1 -1 0 1;
#X obj 44 10 tgl 10 0 \$0-floatmult \$0-floatmult-r /100 15 5 0 10
-225271 -1 -1 1 1;
#X coords 0 -1 1 1 220 20 2 0 0;
#X restore 10 100 pd \$0-GUI;
#X obj 525 346 s pd-\$0-GUI;
#X obj 556 504 s pd-\$0-GUI;
#X obj 452 146 s pd-\$0-GUI;
#X obj 280 300 s pd-\$0-GUI;
#X obj 389 492 r \$0-out;
#X obj 458 492 r \$0-pname;
#X obj 389 517 list prepend;
#X obj 389 560 s from_ol_glsl_par;
#X obj 12 439 route \$1 0;
#N canvas 0 50 303 300 group 0;
#X obj 72 28 inlet;
#X obj 72 200 outlet;
#X obj 72 130 list prepend;
#X obj 72 106 until;
#X obj 156 207 t b a;
#X obj 114 106 list prepend;
#X msg 72 78 3;
#X obj 72 54 t b a b;
#X obj 72 165 list split 3;
#X connect 0 0 7 0;
#X connect 2 0 8 0;
#X connect 3 0 2 0;
#X connect 4 1 5 1;
#X connect 5 0 2 1;
#X connect 6 0 3 0;
#X connect 7 0 6 0;
#X connect 7 1 5 0;
#X connect 7 2 5 1;
#X connect 7 2 2 1;
#X connect 8 0 1 0;
#X connect 8 1 2 1;
#X connect 8 2 4 0;
#X restore 190 492 pd group 3;
#X obj 389 538 list trim;
#X obj 279 537 r \$0-pname;
#X obj 190 514 list split 1;
#X obj 190 560 list;
#X obj 190 537 select symbol;
#X obj 190 581 s \$0-default;
#N canvas 652 219 656 649 vec4 0;
#X obj 23 261 inlet;
#X obj 23 309 symbol;
#X obj 42 614 s pd-\$0-GUI;
#X msg 23 362 list $ 0 \$1;
#X obj 37 285 bng 15 250 50 0 empty empty empty 17 7 0 10 -262144 -1
-1;
#X obj 31 136 s \$0-out;
#X obj 35 333 s \$0-pname;
#X msg 75 384 clear;
#X obj 23 384 t b l b;
#X text 322 189 COLOR PRESETS;
#X obj 301 5 r \$0-color;
#X obj 385 282 sel 1 2 3 4 5 6 7 8 9 10, f 41;
#X msg 457 365 0 1 0 1;
#X obj 457 504 unpack 0 0 0 0;
#X obj 457 527 s \$0-R-r;
#X obj 457 544 s \$0-G-r;
#X obj 457 578 s \$0-A-r;
#X obj 457 561 s \$0-B-r;
#X obj 509 137 s \$0-color-r;
#X obj 31 34 r \$0-R;
#X obj 77 34 r \$0-G;
#X obj 124 34 r \$0-B;
#X obj 169 34 r \$0-A;
#X obj 378 85 s \$0-R-r;
#X obj 378 102 s \$0-G-r;
#X obj 378 136 s \$0-A-r;
#X obj 378 119 s \$0-B-r;
#X obj 77 55 t b f;
#X obj 124 55 t b f;
#X obj 169 55 t b f;
#X msg 385 309 0, f 1;
#X obj 385 337 s \$0-color-r;
#X msg 403 309 100;
#X msg 431 309 50;
#X msg 482 339 0 0 1 1;
#X obj 31 92 pack 0 0 0 0 0, f 28;
#X obj 31 55 t b f;
#X obj 31 114 route 0;
#X obj 257 135 s \$0-out;
#X msg 301 68 set \$1;
#X msg 257 113 \$1 \$1 \$1 \$1;
#X obj 301 46 f;
#X obj 301 26 * 0.01;
#X obj 385 259 r \$0-vec4pr;
#X msg 41 407 obj 3 0 hsl 50 10 0 1 0 0 \$1\$2-R \$1\$2-R-r R 10 5
1 10 5 -1 -1 0 1 \, obj 58 0 hsl 50 10 0 1 0 0 \$1\$2-G \$1\$2-G-r
G 10 5 1 10 5 -1 -1 0 1 \, obj 113 0 hsl 50 10 0 1 0 0 \$1\$2-B \$1\$2-B-r
B 10 5 1 10 5 -1 -1 0 1 \, obj 168 0 hsl 50 10 0 1 0 0 \$1\$2-A \$1\$2-A-r
A 10 5 1 10 5 -1 -1 0 1 \, obj 120 10 hradio 10 1 0 10 \$1\$2-vec4pr
\$1\$2-vec4pr-r empty 0 -8 0 10 5 5 0 0 \, obj 0 10 nbx 4 10 0 100
0 0 \$1\$2-color \$1\$2-color-r \$3 45 5 1 9 5 -1 -1 0 256, f 36;
#X msg 531 104 label \$1;
#X obj 497 13 r \$0-default;
#X obj 497 34 list split 1;
#X obj 497 56 route float;
#X obj 531 81 route symbol;
#X obj 486 97 * 100;
#X connect 0 0 1 0;
#X connect 1 0 3 0;
#X connect 1 0 6 0;
#X connect 3 0 8 0;
#X connect 4 0 1 0;
#X connect 7 0 2 0;
#X connect 8 1 44 0;
#X connect 8 2 7 0;
#X connect 10 0 42 0;
#X connect 11 0 30 0;
#X connect 11 1 32 0;
#X connect 11 2 33 0;
#X connect 11 3 12 0;
#X connect 11 4 34 0;
#X connect 12 0 13 0;
#X connect 13 0 14 0;
#X connect 13 1 15 0;
#X connect 13 2 17 0;
#X connect 13 3 16 0;
#X connect 19 0 36 0;
#X connect 20 0 27 0;
#X connect 21 0 28 0;
#X connect 22 0 29 0;
#X connect 27 0 35 0;
#X connect 27 1 35 2;
#X connect 28 0 35 0;
#X connect 28 1 35 3;
#X connect 29 0 35 0;
#X connect 29 1 35 4;
#X connect 30 0 31 0;
#X connect 32 0 31 0;
#X connect 33 0 31 0;
#X connect 34 0 13 0;
#X connect 35 0 37 0;
#X connect 36 0 35 0;
#X connect 36 1 35 1;
#X connect 37 0 5 0;
#X connect 39 0 23 0;
#X connect 39 0 24 0;
#X connect 39 0 26 0;
#X connect 39 0 25 0;
#X connect 40 0 38 0;
#X connect 41 0 35 4;
#X connect 41 0 35 3;
#X connect 41 0 35 2;
#X connect 41 0 35 1;
#X connect 41 0 39 0;
#X connect 41 0 40 0;
#X connect 42 0 41 0;
#X connect 43 0 11 0;
#X connect 44 0 2 0;
#X connect 45 0 18 0;
#X connect 46 0 47 0;
#X connect 47 0 48 0;
#X connect 47 1 49 0;
#X connect 48 0 50 0;
#X connect 49 0 45 0;
#X connect 50 0 18 0;
#X restore 139 534 pd vec4;
#N canvas 725 590 656 340 vec2 0;
#X obj 26 28 inlet;
#X obj 26 76 symbol;
#X obj 26 236 s pd-\$0-GUI;
#X msg 26 99 list $ 0 \$1;
#X obj 40 52 bng 15 250 50 0 empty empty empty 17 7 0 10 -262144 -1
-1;
#X obj 221 94 s \$0-out;
#X obj 104 236 s \$0-pname;
#X obj 165 24 r \$0-vec2_1;
#X obj 244 23 r \$0-vec2_2;
#X obj 221 74 pack;
#X obj 244 45 t b f;
#X obj 26 121 t l b;
#X msg 69 121 clear;
#X msg 26 178 obj 0 0 nbx 4 20 -1e+037 1e+037 0 0 \$1\$2-vec2_1 \$1\$2-vec2_1-r
empty 60 11 1 10 3 -1 -1 0 256 \, obj 44 0 nbx 4 20 -1e+037 1e+037
0 0 \$1\$2-vec2_2 \$1\$2-vec2_2-r \$3 60 11 1 10 3 -1 -1 0 256 \,,
f 66;
#X msg 496 107 label \$1;
#X obj 462 16 r \$0-default;
#X obj 462 37 list split 1;
#X obj 462 59 route float;
#X obj 496 84 route symbol;
#X obj 408 129 s \$0-vec2_1-r;
#X obj 496 129 s \$0-vec2_2-r;
#X connect 0 0 1 0;
#X connect 1 0 3 0;
#X connect 1 0 6 0;
#X connect 3 0 11 0;
#X connect 4 0 1 0;
#X connect 7 0 9 0;
#X connect 8 0 10 0;
#X connect 9 0 5 0;
#X connect 10 0 9 0;
#X connect 10 1 9 1;
#X connect 11 0 13 0;
#X connect 11 1 12 0;
#X connect 12 0 2 0;
#X connect 13 0 2 0;
#X connect 14 0 20 0;
#X connect 15 0 16 0;
#X connect 16 0 17 0;
#X connect 16 1 18 0;
#X connect 17 0 19 0;
#X connect 17 0 20 0;
#X connect 18 0 14 0;
#X restore 75 588 pd vec2;
#X text 84 439 0 = defaults;
#X msg 467 325 220 20;
#N canvas 652 219 656 649 vec3 0;
#X obj 23 261 inlet;
#X obj 23 309 symbol;
#X obj 42 614 s pd-\$0-GUI;
#X msg 23 362 list $ 0 \$1;
#X obj 37 285 bng 15 250 50 0 empty empty empty 17 7 0 10 -262144 -1
-1;
#X obj 31 136 s \$0-out;
#X obj 35 333 s \$0-pname;
#X msg 75 384 clear;
#X obj 23 384 t b l b;
#X obj 385 282 sel 1 2 3 4 5 6 7 8 9 10, f 41;
#X msg 457 365 0 1 0 1;
#X obj 117 55 t b f;
#X obj 204 55 t b f;
#X msg 385 309 0, f 1;
#X msg 403 309 100;
#X msg 431 309 50;
#X msg 482 339 0 0 1 1;
#X obj 31 55 t b f;
#X obj 31 114 route 0;
#X obj 257 135 s \$0-out;
#X msg 301 68 set \$1;
#X msg 257 113 \$1 \$1 \$1 \$1;
#X obj 301 46 f;
#X obj 301 26 * 0.01;
#X obj 385 214 r \$0-vec3pr;
#X obj 301 5 r \$0-vec3;
#X obj 31 92 pack 0 0 0 0, f 28;
#X obj 31 34 r \$0-vec3_1;
#X obj 117 34 r \$0-vec3_2;
#X obj 204 34 r \$0-vec3_3;
#X obj 511 146 s \$0-vec3-r;
#X obj 385 337 s \$0-vec3-r;
#X obj 457 389 t l l;
#X obj 346 97 s \$0-vec3_1-r;
#X obj 346 114 s \$0-vec3_2-r;
#X obj 346 131 s \$0-vec3_3-r;
#X obj 484 433 s \$0-vec3_1-r;
#X obj 484 450 s \$0-vec3_2-r;
#X obj 484 467 s \$0-vec3_3-r;
#X obj 484 411 unpack 0 0 0;
#X msg 21 423 obj 3 0 hsl 68 10 0 1 0 0 \$1\$2-vec3_1 \$1\$2-vec3_1-r
empty 10 5 1 10 5 -1 -1 0 1 \, obj 76 0 hsl 69 10 0 1 0 0 \$1\$2-vec3_2
\$1\$2-vec3_2-r empty 10 5 1 10 5 -1 -1 0 1 \, obj 150 0 hsl 68 10
0 1 0 0 \$1\$2-vec3_3 \$1\$2-vec3_3-r empty 10 5 1 10 5 -1 -1 0 1 \,
obj 120 10 hradio 10 1 0 10 \$1\$2-vec3pr \$1\$2-vec3pr-r empty 0 -8
0 10 5 5 0 0 \, obj 0 10 nbx 4 10 0 100 0 0 \$1\$2-vec3 \$1\$2-vec3-r
\$3 40 5 1 9 5 -1 -1 0 256, f 42;
#X msg 545 112 label \$1;
#X obj 511 21 r \$0-default;
#X obj 511 42 list split 1;
#X obj 511 64 route float;
#X obj 545 89 route symbol;
#X obj 505 90 * 100;
#X connect 0 0 1 0;
#X connect 1 0 3 0;
#X connect 1 0 6 0;
#X connect 3 0 8 0;
#X connect 4 0 1 0;
#X connect 7 0 2 0;
#X connect 8 1 40 0;
#X connect 8 2 7 0;
#X connect 9 0 13 0;
#X connect 9 1 14 0;
#X connect 9 2 15 0;
#X connect 9 3 10 0;
#X connect 9 4 16 0;
#X connect 10 0 32 0;
#X connect 11 0 26 0;
#X connect 11 1 26 2;
#X connect 12 0 26 0;
#X connect 12 1 26 3;
#X connect 13 0 31 0;
#X connect 14 0 31 0;
#X connect 15 0 31 0;
#X connect 16 0 32 0;
#X connect 17 0 26 0;
#X connect 17 1 26 1;
#X connect 18 0 5 0;
#X connect 20 0 33 0;
#X connect 20 0 34 0;
#X connect 20 0 35 0;
#X connect 21 0 19 0;
#X connect 22 0 20 0;
#X connect 22 0 21 0;
#X connect 22 0 26 3;
#X connect 22 0 26 2;
#X connect 22 0 26 1;
#X connect 23 0 22 0;
#X connect 24 0 9 0;
#X connect 25 0 23 0;
#X connect 26 0 18 0;
#X connect 27 0 17 0;
#X connect 28 0 11 0;
#X connect 29 0 12 0;
#X connect 32 1 39 0;
#X connect 39 0 36 0;
#X connect 39 1 37 0;
#X connect 39 2 38 0;
#X connect 40 0 2 0;
#X connect 41 0 30 0;
#X connect 42 0 43 0;
#X connect 43 0 44 0;
#X connect 43 1 45 0;
#X connect 44 0 46 0;
#X connect 45 0 41 0;
#X connect 46 0 30 0;
#X restore 107 559 pd vec3;
#X obj 58 289 route float int;
#X connect 0 0 33 0;
#X connect 1 0 0 0;
#X connect 3 0 14 0;
#X connect 3 0 13 0;
#X connect 6 0 14 0;
#X connect 9 0 32 0;
#X connect 10 0 25 0;
#X connect 11 0 15 0;
#X connect 13 0 34 0;
#X connect 14 0 8 0;
#X connect 15 0 51 0;
#X connect 15 1 9 0;
#X connect 16 0 19 0;
#X connect 16 1 17 0;
#X connect 17 0 53 0;
#X connect 18 0 20 1;
#X connect 19 0 20 0;
#X connect 19 1 21 0;
#X connect 20 0 22 0;
#X connect 21 1 22 1;
#X connect 21 2 22 1;
#X connect 22 0 40 0;
#X connect 24 0 29 0;
#X connect 24 1 30 0;
#X connect 24 2 49 0;
#X connect 24 3 52 0;
#X connect 24 4 48 0;
#X connect 25 0 16 0;
#X connect 25 1 26 0;
#X connect 26 0 27 0;
#X connect 27 0 35 0;
#X connect 28 0 25 0;
#X connect 36 0 38 0;
#X connect 37 0 38 1;
#X connect 38 0 42 0;
#X connect 40 0 24 0;
#X connect 40 1 41 0;
#X connect 41 0 44 0;
#X connect 42 0 39 0;
#X connect 43 0 46 1;
#X connect 44 0 46 0;
#X connect 44 1 45 1;
#X connect 45 0 47 0;
#X connect 46 0 45 0;
#X connect 51 0 12 0;
#X connect 53 0 18 0;
#X connect 53 1 18 0;
#X connect 53 2 20 1;
#X coords 0 -1 1 1 220 20 2 10 100;
